<svg id="live_q_a_remove" data-name="live q&amp;a remove" xmlns="http://www.w3.org/2000/svg" width="24" height="24" viewBox="0 0 24 24">
  <path id="Icon_ionic-ios-close-circle" data-name="Icon ionic-ios-close-circle" d="M13.873,3.375a10.5,10.5,0,1,0,10.5,10.5A10.5,10.5,0,0,0,13.873,3.375Zm2.66,14.3-2.66-2.66-2.66,2.66a.807.807,0,1,1-1.141-1.141l2.66-2.66-2.66-2.66a.807.807,0,0,1,1.141-1.141l2.66,2.66,2.66-2.66a.807.807,0,0,1,1.141,1.141l-2.66,2.66,2.66,2.66a.81.81,0,0,1,0,1.141A.8.8,0,0,1,16.533,17.674Z" transform="translate(-2.039 -2.04)" fill="#f55"/>
  <rect id="Rectangle_1798" data-name="Rectangle 1798" width="24" height="24" fill="none"/>
</svg>
